<svg data-v-fde0c5aa="" xmlns="http://www.w3.org/2000/svg" viewBox="0 0 300 300" class="iconLeft"><!----><defs data-v-fde0c5aa=""><!----></defs><rect data-v-fde0c5aa="" fill="transparent" x="0" y="0" width="300px" height="300px" class="logo-background-square"></rect><defs data-v-fde0c5aa=""><!----></defs><g data-v-fde0c5aa="" id="2e9aa739-8011-4529-a0f4-35fccfb47000" fill="#000000" transform="matrix(3.0508551597595215,0,0,3.0508551597595215,93.72839849894521,126.83256928626356)"><path d="M5.18 2.38L-0.07 12.60L2.03 12.60L3.16 10.22L7.20 10.22L8.33 12.60L10.43 12.60ZM5.18 6.02L6.38 8.54L3.98 8.54ZM14.98 9.94C14.98 10.49 14.86 10.85 14.61 11.03C14.36 11.20 14.01 11.28 13.55 11.28C13.20 11.28 12.94 11.18 12.77 10.98C12.61 10.77 12.53 10.43 12.53 9.94L12.53 6.16L10.64 6.16L10.64 10.50C10.64 12.00 11.33 12.75 12.71 12.75C13.79 12.75 14.55 12.35 14.98 11.55L14.98 12.60L16.87 12.60L16.87 6.16L14.98 6.16ZM20.03 9.38C20.03 8.83 20.21 8.41 20.57 8.11C20.93 7.82 21.42 7.67 22.02 7.67C22.46 7.67 22.88 7.77 23.29 7.96C23.70 8.15 23.97 8.37 24.12 8.62L24.12 6.50C23.51 6.13 22.76 5.95 21.88 5.95C20.72 5.95 19.80 6.26 19.10 6.88C18.41 7.50 18.06 8.33 18.06 9.38C18.06 10.43 18.41 11.26 19.10 11.88C19.80 12.50 20.72 12.81 21.88 12.81C22.87 12.81 23.62 12.63 24.12 12.26L24.12 10.12C23.96 10.39 23.70 10.62 23.32 10.81C22.94 10.99 22.51 11.09 22.02 11.09C21.42 11.09 20.93 10.94 20.57 10.65C20.21 10.35 20.03 9.93 20.03 9.38ZM25.94 3.92L25.94 6.16L24.89 6.16L24.89 7.77L25.94 7.77L25.94 12.60L27.83 12.60L27.83 7.77L28.88 7.77L28.88 6.16L27.83 6.16L27.83 3.92ZM29.51 3.61C29.51 3.91 29.63 4.17 29.86 4.38C30.08 4.60 30.36 4.70 30.67 4.70C30.99 4.70 31.26 4.60 31.49 4.38C31.72 4.17 31.84 3.91 31.84 3.61C31.84 3.31 31.72 3.06 31.49 2.84C31.26 2.63 30.99 2.52 30.67 2.52C30.36 2.52 30.08 2.63 29.86 2.84C29.63 3.06 29.51 3.31 29.51 3.61ZM29.71 6.16L29.71 12.60L31.63 12.60L31.63 6.16ZM32.75 9.38C32.75 10.44 33.11 11.28 33.85 11.89C34.58 12.50 35.46 12.81 36.50 12.81C37.53 12.81 38.42 12.50 39.15 11.89C39.88 11.28 40.25 10.44 40.25 9.38C40.25 8.32 39.88 7.48 39.15 6.87C38.42 6.26 37.53 5.95 36.50 5.95C35.46 5.95 34.58 6.26 33.85 6.87C33.11 7.48 32.75 8.32 32.75 9.38ZM34.65 9.38C34.65 8.84 34.82 8.40 35.15 8.06C35.49 7.73 35.94 7.56 36.50 7.56C37.06 7.56 37.51 7.73 37.84 8.06C38.18 8.40 38.35 8.84 38.35 9.38C38.35 9.92 38.18 10.36 37.84 10.70C37.51 11.03 37.06 11.20 36.50 11.20C35.94 11.20 35.49 11.03 35.15 10.70C34.82 10.36 34.65 9.92 34.65 9.38ZM43.26 8.82C43.26 8.38 43.40 8.05 43.67 7.82C43.94 7.59 44.28 7.48 44.69 7.48C45.04 7.48 45.30 7.57 45.47 7.76C45.63 7.95 45.71 8.26 45.71 8.68L45.71 12.60L47.60 12.60L47.60 8.26C47.60 7.57 47.40 7.02 47.00 6.61C46.60 6.21 46.06 6.01 45.39 6.01C44.43 6.01 43.72 6.41 43.26 7.22L43.26 6.16L41.37 6.16L41.37 12.60L43.26 12.60ZM50.41 10.35L48.79 10.88C48.88 11.48 49.20 11.95 49.73 12.29C50.26 12.64 50.93 12.81 51.73 12.81C52.54 12.81 53.21 12.61 53.73 12.22C54.24 11.83 54.50 11.35 54.50 10.78C54.50 10.23 54.33 9.79 53.99 9.47C53.65 9.15 53.20 8.89 52.65 8.68C52.52 8.63 52.36 8.58 52.16 8.51C51.97 8.45 51.82 8.40 51.72 8.36C51.61 8.32 51.51 8.27 51.39 8.22C51.28 8.16 51.20 8.11 51.16 8.05C51.11 7.99 51.09 7.93 51.09 7.85C51.09 7.52 51.30 7.35 51.72 7.35C52.17 7.35 52.57 7.59 52.91 8.06L54.38 7.56C53.96 6.49 53.04 5.95 51.63 5.95C50.89 5.95 50.30 6.12 49.86 6.45C49.42 6.79 49.20 7.26 49.20 7.85C49.20 8.79 49.84 9.45 51.11 9.86C51.58 10.01 51.94 10.15 52.19 10.29C52.44 10.43 52.57 10.59 52.57 10.78C52.57 11.15 52.29 11.34 51.73 11.34C51.07 11.34 50.63 11.01 50.41 10.35Z"></path></g><defs data-v-fde0c5aa=""><linearGradient data-v-fde0c5aa="" gradientTransform="rotate(25)" id="5bb4a011-4c0d-4f95-ac7b-8858908fbe1b" x1="0%" y1="0%" x2="100%" y2="0%"><stop data-v-fde0c5aa="" offset="0%" stop-color="#01695A" stop-opacity="1"></stop><stop data-v-fde0c5aa="" offset="100%" stop-color="#2CC26F" stop-opacity="1"></stop></linearGradient></defs><g data-v-fde0c5aa="" id="8a6ae285-57b8-4e99-8be6-1371f1eb4054" stroke="none" fill="url(#5bb4a011-4c0d-4f95-ac7b-8858908fbe1b)" transform="matrix(0.530324399471283,0,0,0.530324399471283,33.73968598300749,123.48377914708666)"><path clip-rule="evenodd" d="M18.891 5h62.218c1.954 0 3.728.797 5.01 2.079a7.071 7.071 0 0 1 2.079 5.01v62.218c0 1.94-.787 3.661-2.052 4.929l-.012.012a7.423 7.423 0 0 1-4.903 2.135l-28.819-.047L37.355 92.27 33.029 95l.007-5.117.013-8.489H18.891a7.069 7.069 0 0 1-5.009-2.079 7.07 7.07 0 0 1-2.079-5.009V12.088c0-1.954.797-3.728 2.079-5.01S16.938 5 18.891 5zm28.652 41.015c-.363-1.146-.847-2.072-1.462-2.782-.614-.7-1.299-1.251-2.06-1.641a8.926 8.926 0 0 0-2.448-.825 24.32 24.32 0 0 0-2.607-.313 105.8 105.8 0 0 0-2.543-.131 14.422 14.422 0 0 1-2.278-.263c-.693-.141-1.289-.384-1.79-.73-.498-.34-.849-.842-1.059-1.511a3.057 3.057 0 0 1-.137-1.243 2.5 2.5 0 0 1 .438-1.143c.248-.357.607-.687 1.091-.999.48-.304 1.088-.575 1.823-.807a8.8 8.8 0 0 1 2.309-.426 16.502 16.502 0 0 1 3.478.212c.413.068.712.078.894.022a.426.426 0 0 0 .23-.154c.057-.072.09-.195.095-.355a2.42 2.42 0 0 0-.08-.686 15.076 15.076 0 0 0-.315-1.099 14.9 14.9 0 0 0-.292-.851 5.114 5.114 0 0 0-.273-.617 1.7 1.7 0 0 0-.292-.394 1.395 1.395 0 0 0-.391-.275c-.157-.089-.418-.157-.775-.204a11.801 11.801 0 0 0-1.177-.108 12.93 12.93 0 0 0-1.346.035c-.466.042-.913.095-1.33.164l-.845-4.166a1.379 1.379 0 0 0-.199-.409.56.56 0 0 0-.394-.212c-.177-.03-.423-.017-.726.031a7.804 7.804 0 0 0-1.111.278 7.414 7.414 0 0 0-.872.324 1.847 1.847 0 0 0-.502.309.803.803 0 0 0-.21.298.735.735 0 0 0-.002.321l.924 4.422c-1.19.535-2.209 1.151-3.061 1.868-.844.713-1.501 1.497-1.962 2.361a6.987 6.987 0 0 0-.817 2.781c-.08.984.05 2.005.387 3.073.371 1.178.866 2.132 1.474 2.851.61.717 1.292 1.285 2.057 1.682a9.135 9.135 0 0 0 2.431.846c.861.169 1.718.281 2.575.337.858.057 1.693.097 2.51.136.811.034 1.564.122 2.251.272.687.15 1.267.391 1.755.723.487.326.837.831 1.053 1.514.322 1.025.179 1.981-.434 2.852-.61.872-1.74 1.571-3.402 2.096-1.063.336-2.018.516-2.869.555a13.4 13.4 0 0 1-2.234-.07 15.452 15.452 0 0 1-1.58-.276c-.424-.098-.727-.122-.909-.065a.739.739 0 0 0-.34.212c-.088.098-.139.242-.157.439-.014.189.015.451.083.774.072.321.182.725.333 1.204.2.632.386 1.093.558 1.391.167.299.36.499.577.608.212.117.503.2.877.274.373.065.802.116 1.297.134.486.024 1.021.022 1.608-.02.578-.038 1.187-.11 1.824-.215l.918 4.478a.88.88 0 0 0 .165.42c.089.108.224.177.408.206.179.033.414.021.703-.022a7.68 7.68 0 0 0 1.111-.278c.356-.112.64-.219.862-.329.222-.109.386-.218.51-.311.11-.101.183-.202.207-.306a.822.822 0 0 0 0-.328l-.993-4.712c1.322-.545 2.48-1.204 3.473-1.981.984-.782 1.763-1.653 2.337-2.616a7.803 7.803 0 0 0 1.046-3.116c.116-1.119-.01-2.285-.398-3.514zm22.142 15.6c.329-.82.485-1.572.465-2.262a5.09 5.09 0 0 0-.404-1.893 6.69 6.69 0 0 0-1.007-1.611c-.424-.49-.866-.956-1.335-1.392a89.126 89.126 0 0 0-1.384-1.26 10.547 10.547 0 0 1-1.173-1.211 3.536 3.536 0 0 1-.677-1.248c-.126-.424-.09-.874.102-1.352.122-.308.291-.56.501-.77.218-.209.475-.36.782-.446.307-.088.665-.108 1.086-.06.414.052.886.18 1.412.391a6.496 6.496 0 0 1 1.508.836c.433.322.801.64 1.115.939.308.299.563.569.763.802.204.23.37.376.498.428.074.03.137.037.204.02.067-.014.142-.068.219-.159a1.76 1.76 0 0 0 .276-.426c.097-.196.206-.454.332-.77.09-.229.17-.439.229-.62.062-.182.107-.339.132-.477.024-.136.032-.259.019-.361a1.016 1.016 0 0 0-.094-.339c-.048-.122-.166-.284-.346-.476a8.535 8.535 0 0 0-.618-.61 9.323 9.323 0 0 0-.782-.608 13.224 13.224 0 0 0-.832-.526l1.462-2.762a1.07 1.07 0 0 0 .077-.326.424.424 0 0 0-.126-.304c-.087-.1-.232-.205-.426-.321a5.761 5.761 0 0 0-.762-.359 5.396 5.396 0 0 0-.645-.222 1.362 1.362 0 0 0-.431-.058.599.599 0 0 0-.257.071.539.539 0 0 0-.151.181l-1.536 2.944c-.925-.251-1.791-.374-2.61-.364-.812.012-1.551.15-2.216.426s-1.253.675-1.76 1.201c-.505.522-.905 1.163-1.213 1.927-.337.842-.501 1.614-.489 2.307.011.692.135 1.332.384 1.913.249.583.583 1.121.987 1.614.409.498.845.961 1.307 1.392.459.433.917.844 1.363 1.247.444.396.832.799 1.153 1.205.321.404.536.811.66 1.228.124.413.087.862-.108 1.35-.294.733-.821 1.21-1.576 1.42-.754.21-1.721.082-2.911-.396-.759-.304-1.387-.647-1.888-1.021a9.83 9.83 0 0 1-1.238-1.081c-.321-.341-.575-.64-.769-.894-.195-.252-.355-.408-.486-.46a.541.541 0 0 0-.292-.038c-.097.015-.192.074-.294.177-.095.1-.202.263-.313.477-.11.216-.235.498-.373.841-.18.453-.289.801-.331 1.049-.044.248-.028.453.045.615.065.166.192.348.369.565.182.211.403.44.675.68.266.239.57.488.923.737.348.249.727.492 1.138.729l-1.566 2.973a.658.658 0 0 0-.102.316.473.473 0 0 0 .137.307c.085.102.225.206.409.316.186.11.44.23.762.36.254.101.466.173.641.213.179.042.322.057.436.062a.46.46 0 0 0 .259-.078.558.558 0 0 0 .153-.186l1.631-3.14c1.006.306 1.972.47 2.897.491.924.015 1.773-.117 2.547-.396a5.766 5.766 0 0 0 2.049-1.285c.59-.581 1.061-1.304 1.414-2.182zm-7.458-28.683c.03-.692-.048-1.287-.242-1.79a3.946 3.946 0 0 0-.789-1.292 5.142 5.142 0 0 0-1.158-.927 14.03 14.03 0 0 0-1.345-.682 67.445 67.445 0 0 0-1.347-.571 8.182 8.182 0 0 1-1.178-.59 2.763 2.763 0 0 1-.822-.747c-.202-.281-.292-.62-.276-1.023.012-.259.07-.488.172-.699.106-.209.258-.387.462-.531a2.16 2.16 0 0 1 .785-.324c.317-.07.7-.097 1.143-.077.487.022.932.097 1.328.224a9.47 9.47 0 0 1 1.837.799c.209.119.369.184.477.189.06.001.11-.009.156-.039a.35.35 0 0 0 .12-.173c.04-.091.072-.216.092-.386a8.36 8.36 0 0 0 .047-.655c.008-.192.012-.368.008-.516a2.687 2.687 0 0 0-.025-.386.857.857 0 0 0-.237-.497c-.067-.078-.195-.167-.379-.262-.182-.1-.39-.197-.613-.291a7.248 7.248 0 0 0-.734-.246 11.045 11.045 0 0 0-.75-.174l.364-2.415a.838.838 0 0 0-.027-.261.319.319 0 0 0-.172-.19 1.318 1.318 0 0 0-.398-.127 4.517 4.517 0 0 0-.653-.068 4.166 4.166 0 0 0-.535.004c-.142.01-.248.032-.332.068a.433.433 0 0 0-.17.118.393.393 0 0 0-.065.174l-.371 2.567c-.747.055-1.419.187-2.02.406a4.643 4.643 0 0 0-1.524.889c-.42.376-.75.822-.988 1.34-.237.515-.367 1.093-.396 1.735-.03.709.048 1.322.235 1.83.189.506.444.947.779 1.312.334.366.72.677 1.147.936.431.261.872.49 1.323.689.451.2.894.386 1.328.568.43.176.821.373 1.161.588.341.217.607.461.804.737.199.271.289.613.271 1.024-.027.617-.292 1.103-.795 1.454-.502.351-1.249.506-2.249.461-.638-.027-1.191-.117-1.658-.266a7.779 7.779 0 0 1-1.193-.476 9.081 9.081 0 0 1-.799-.461c-.209-.136-.367-.209-.476-.212a.407.407 0 0 0-.226.047.431.431 0 0 0-.172.207c-.044.098-.08.246-.106.433a8.542 8.542 0 0 0-.058.715c-.017.381-.006.667.028.861.03.196.095.341.191.443.091.104.232.207.419.319.189.11.411.22.673.329.259.107.546.212.872.304.319.094.662.174 1.027.242l-.386 2.598a.502.502 0 0 0 .006.259c.027.077.085.14.179.192.09.052.22.094.384.127.166.033.383.055.655.068.214.008.388.006.53-.008.14-.015.251-.042.336-.068a.348.348 0 0 0 .172-.124.444.444 0 0 0 .063-.177l.393-2.739a8.385 8.385 0 0 0 2.264-.386 5.594 5.594 0 0 0 1.777-.951 4.505 4.505 0 0 0 1.178-1.477c.286-.58.446-1.235.478-1.972z"></path></g><!----></svg>