<svg data-v-423bf9ae="" xmlns="http://www.w3.org/2000/svg" viewBox="0 0 313.9325842696629 60" class="font"><!----><!----><!----><g data-v-423bf9ae="" id="f29ee742-70a1-43dd-9b87-28d3a102bcad" fill="black" transform="matrix(5.752809047698975,0,0,5.752809047698975,0.4044939875602722,-13.685393333435059)"><path d="M5.18 2.38L-0.07 12.60L2.03 12.60L3.16 10.22L7.20 10.22L8.33 12.60L10.43 12.60ZM5.18 6.02L6.38 8.54L3.98 8.54ZM14.98 9.94C14.98 10.49 14.86 10.85 14.61 11.03C14.36 11.20 14.01 11.28 13.55 11.28C13.20 11.28 12.94 11.18 12.77 10.98C12.61 10.77 12.53 10.43 12.53 9.94L12.53 6.16L10.64 6.16L10.64 10.50C10.64 12.00 11.33 12.75 12.71 12.75C13.79 12.75 14.55 12.35 14.98 11.55L14.98 12.60L16.87 12.60L16.87 6.16L14.98 6.16ZM20.03 9.38C20.03 8.83 20.21 8.41 20.57 8.11C20.93 7.82 21.42 7.67 22.02 7.67C22.46 7.67 22.88 7.77 23.29 7.96C23.70 8.15 23.97 8.37 24.12 8.62L24.12 6.50C23.51 6.13 22.76 5.95 21.88 5.95C20.72 5.95 19.80 6.26 19.10 6.88C18.41 7.50 18.06 8.33 18.06 9.38C18.06 10.43 18.41 11.26 19.10 11.88C19.80 12.50 20.72 12.81 21.88 12.81C22.87 12.81 23.62 12.63 24.12 12.26L24.12 10.12C23.96 10.39 23.70 10.62 23.32 10.81C22.94 10.99 22.51 11.09 22.02 11.09C21.42 11.09 20.93 10.94 20.57 10.65C20.21 10.35 20.03 9.93 20.03 9.38ZM25.94 3.92L25.94 6.16L24.89 6.16L24.89 7.77L25.94 7.77L25.94 12.60L27.83 12.60L27.83 7.77L28.88 7.77L28.88 6.16L27.83 6.16L27.83 3.92ZM29.51 3.61C29.51 3.91 29.63 4.17 29.86 4.38C30.08 4.60 30.36 4.70 30.67 4.70C30.99 4.70 31.26 4.60 31.49 4.38C31.72 4.17 31.84 3.91 31.84 3.61C31.84 3.31 31.72 3.06 31.49 2.84C31.26 2.63 30.99 2.52 30.67 2.52C30.36 2.52 30.08 2.63 29.86 2.84C29.63 3.06 29.51 3.31 29.51 3.61ZM29.71 6.16L29.71 12.60L31.63 12.60L31.63 6.16ZM32.75 9.38C32.75 10.44 33.11 11.28 33.85 11.89C34.58 12.50 35.46 12.81 36.50 12.81C37.53 12.81 38.42 12.50 39.15 11.89C39.88 11.28 40.25 10.44 40.25 9.38C40.25 8.32 39.88 7.48 39.15 6.87C38.42 6.26 37.53 5.95 36.50 5.95C35.46 5.95 34.58 6.26 33.85 6.87C33.11 7.48 32.75 8.32 32.75 9.38ZM34.65 9.38C34.65 8.84 34.82 8.40 35.15 8.06C35.49 7.73 35.94 7.56 36.50 7.56C37.06 7.56 37.51 7.73 37.84 8.06C38.18 8.40 38.35 8.84 38.35 9.38C38.35 9.92 38.18 10.36 37.84 10.70C37.51 11.03 37.06 11.20 36.50 11.20C35.94 11.20 35.49 11.03 35.15 10.70C34.82 10.36 34.65 9.92 34.65 9.38ZM43.26 8.82C43.26 8.38 43.40 8.05 43.67 7.82C43.94 7.59 44.28 7.48 44.69 7.48C45.04 7.48 45.30 7.57 45.47 7.76C45.63 7.95 45.71 8.26 45.71 8.68L45.71 12.60L47.60 12.60L47.60 8.26C47.60 7.57 47.40 7.02 47.00 6.61C46.60 6.21 46.06 6.01 45.39 6.01C44.43 6.01 43.72 6.41 43.26 7.22L43.26 6.16L41.37 6.16L41.37 12.60L43.26 12.60ZM50.41 10.35L48.79 10.88C48.88 11.48 49.20 11.95 49.73 12.29C50.26 12.64 50.93 12.81 51.73 12.81C52.54 12.81 53.21 12.61 53.73 12.22C54.24 11.83 54.50 11.35 54.50 10.78C54.50 10.23 54.33 9.79 53.99 9.47C53.65 9.15 53.20 8.89 52.65 8.68C52.52 8.63 52.36 8.58 52.16 8.51C51.97 8.45 51.82 8.40 51.72 8.36C51.61 8.32 51.51 8.27 51.39 8.22C51.28 8.16 51.20 8.11 51.16 8.05C51.11 7.99 51.09 7.93 51.09 7.85C51.09 7.52 51.30 7.35 51.72 7.35C52.17 7.35 52.57 7.59 52.91 8.06L54.38 7.56C53.96 6.49 53.04 5.95 51.63 5.95C50.89 5.95 50.30 6.12 49.86 6.45C49.42 6.79 49.20 7.26 49.20 7.85C49.20 8.79 49.84 9.45 51.11 9.86C51.58 10.01 51.94 10.15 52.19 10.29C52.44 10.43 52.57 10.59 52.57 10.78C52.57 11.15 52.29 11.34 51.73 11.34C51.07 11.34 50.63 11.01 50.41 10.35Z"></path></g><!----><!----></svg>